<svg id="Capa_1" enable-background="new 0 0 512 512" height="512" viewBox="0 0 512 512" width="512" xmlns="http://www.w3.org/2000/svg"><g><path d="m136 181c-24.813 0-45 20.187-45 45 0 8.284 6.716 15 15 15s15-6.716 15-15c0-8.271 6.729-15 15-15s15 6.729 15 15c0 6.322-3.994 12-9.939 14.129-11.999 4.298-20.061 15.747-20.061 28.489v2.382c0 8.284 6.716 15 15 15s15-6.716 15-15v-2.382c0-.106.074-.209.178-.246 17.838-6.39 29.822-23.418 29.822-42.372 0-24.813-20.187-45-45-45z"/><path d="m497 121h-64.866c2.457-11.827 3.866-22.525 3.866-30 0-33.084-26.916-60-60-60s-60 26.916-60 60c0 7.475 1.409 18.173 3.866 30h-63.866-63.866c2.457-11.827 3.866-22.525 3.866-30 0-33.084-26.916-60-60-60s-60 26.916-60 60c0 7.475 1.409 18.173 3.866 30h-64.866c-8.284 0-15 6.716-15 15v240c0 8.284 6.716 15 15 15h64.866c-2.457 11.827-3.866 22.524-3.866 30 0 33.084 26.916 60 60 60s60-26.916 60-60c0-7.476-1.409-18.173-3.866-30h63.866 63.866c-2.457 11.827-3.866 22.524-3.866 30 0 33.084 26.916 60 60 60s60-26.916 60-60c0-7.476-1.409-18.173-3.866-30h64.866c8.284 0 15-6.716 15-15v-240c0-8.284-6.716-15-15-15zm-323.934 240c-9.897 0-17.103 9.444-14.456 19.004 5.078 18.328 7.39 34.099 7.39 40.996 0 16.542-13.458 30-30 30s-30-13.458-30-30c0-6.897 2.313-22.668 7.39-40.996 2.652-9.579-4.575-19.004-14.456-19.004h-68.934v-210h68.934c9.897 0 17.102-9.445 14.456-19.004-5.077-18.328-7.39-34.099-7.39-40.996 0-16.542 13.458-30 30-30s30 13.458 30 30c0 6.897-2.313 22.668-7.39 40.996-2.651 9.577 4.573 19.004 14.456 19.004h67.934v67.934c0 9.896 9.444 17.105 19.004 14.456 18.329-5.077 34.1-7.39 40.996-7.39 16.542 0 30 13.458 30 30s-13.458 30-30 30c-6.896 0-22.667-2.313-40.996-7.39-9.535-2.643-19.004 4.535-19.004 14.456v67.934zm308.934 0h-68.934c-9.897 0-17.103 9.444-14.456 19.004 5.078 18.328 7.39 34.099 7.39 40.996 0 16.542-13.458 30-30 30s-30-13.458-30-30c0-6.897 2.313-22.668 7.39-40.996 2.652-9.579-4.575-19.004-14.456-19.004h-67.934v-48.866c11.827 2.457 22.525 3.866 30 3.866 33.084 0 60-26.916 60-60s-26.916-60-60-60c-7.475 0-18.173 1.409-30 3.866v-48.866h67.934c9.897 0 17.102-9.445 14.456-19.004-5.077-18.328-7.39-34.099-7.39-40.996 0-16.542 13.458-30 30-30s30 13.458 30 30c0 6.897-2.313 22.668-7.39 40.996-2.651 9.577 4.573 19.004 14.456 19.004h68.934z"/><circle cx="136" cy="316" r="15"/></g></svg>